<svg xmlns="http://www.w3.org/2000/svg" xml:space="preserve" id="svg1" width="210mm" height="181mm" version="1.1" viewBox="0 0 210 181"><g id="layer1"><path id="path1" d="M63.497 2.793c0 .338 1.79 3.215 3.977 6.261 7.954 11.34 3.977 28.433-14.716 63.804-5.965 10.831-11.732 22.509-13.124 26.232-2.784 7.447-1.79 30.632 1.392 33.34 1.59 1.354 1.79-.507 1.193-5.754-1.392-9.985 3.182-22.509 17.5-49.249 16.306-29.955 20.283-42.14 19.289-57.203-.597-9.985-1.591-12.354-5.37-15.062-4.175-2.877-10.141-4.4-10.141-2.37Z" style="fill:#000;stroke:none;stroke-width:.183447"/><path id="path2" d="M83.383 10.24c3.38 5.753 2.983 22-.995 33.509-1.79 5.246-9.346 20.985-16.903 35.032-15.908 30.125-17.897 35.54-17.897 50.095.199 15.401 8.551 29.787 18.295 31.14 1.591.17 5.37 2.031 8.352 4.062 3.182 2.031 6.165 3.893 6.96 3.893.597.169 2.983.508 5.17.846 2.188.338 7.756 1.523 12.33 2.539 6.165 1.692 9.346 1.692 12.926.338 4.375-1.862 4.375-2.031-1.989-2.031-16.505-.338-26.25-12.185-26.25-31.648 0-11.339 1.592-16.247 15.114-47.048 3.38-7.447 6.165-22.848 3.779-20.986-2.188 1.861-14.716 26.063-21.08 41.125-8.948 21.155-7.556 43.326 3.58 53.65 1.79 1.692 2.386 3.045 1.193 3.045-2.784 0-9.545-6.77-13.522-13.539-4.574-7.446-4.574-25.047 0-38.079 1.79-5.246 8.352-19.293 14.914-31.14 13.323-24.54 16.903-36.894 14.12-47.387-2.586-10.154-4.177-10.493-4.177-1.185 0 9.986-4.972 22.34-19.687 49.757-19.09 35.54-21.278 49.756-11.136 70.404 2.983 6.092-2.784 1.184-7.16-5.924-4.97-8.462-5.368-24.709-.795-38.248 1.79-5.416 8.551-19.463 14.915-31.14 15.71-28.77 20.68-42.987 19.488-55.85-.795-8.292-1.79-11-6.363-14.723-5.568-4.57-5.568-4.57-3.182-.508Z" style="fill:#000;stroke:none;stroke-width:.183447"/><path id="path3" d="M50.969 16.501c-.597.677 0 3.216 1.59 5.923 1.591 2.539 2.983 8.8 2.785 13.709l-.2 8.97-2.386-8.462c-3.977-13.709-9.147-18.786-14.516-14.217-1.79 1.524-1.392 3.047 1.392 6.432 4.772 5.246 8.55 26.232 6.76 36.217-1.988 10.493 1.393 6.431 10.143-12.355 4.176-8.8 7.556-18.785 7.556-22.34 0-9.477-8.153-18.108-13.124-13.877z" style="fill:#000;stroke:none;stroke-width:.183447"/><path id="path4" d="M105.257 121.26c0 .508 3.38 2.2 7.557 4.062 3.977 1.693 17.5 8.97 29.829 16.078 30.227 17.263 49.516 22.001 51.704 12.693.397-1.692-2.188-2.37-9.546-2.539-11.335-.169-19.29-4.061-8.55-4.061 10.34 0 16.505-2.708 16.505-7.447 0-3.892-.2-4.062-5.37-1.862-9.147 3.893-28.834 4.908-33.408 1.862-3.778-2.37-3.38-2.538 6.165-2.708 14.318 0 30.624-4.4 30.624-8.292 0-4.74-2.187-5.416-7.755-2.539-2.983 1.861-11.733 3.385-22.87 4.062-17.101 1.184-18.692 1.015-30.027-3.554-11.136-4.231-24.858-7.447-24.858-5.754z" style="fill:#000;stroke:none;stroke-width:.183447"/><path id="path5" d="M90.542 124.814c-.597 1.524-1.193 2.878-1.193 3.216 0 .339 4.176 2.2 9.147 4.062 4.972 1.861 19.687 9.646 32.812 17.093 26.846 15.232 41.363 19.97 50.71 16.755l5.766-2.031-7.954-1.354c-12.727-2.03-18.494-4.4-39.573-16.585-35.397-20.31-47.727-25.556-49.715-21.156z" style="fill:#000;stroke:none;stroke-width:.183447"/><path id="path6" d="M89.349 137.846c0 2.877 1.988 4.739 7.556 6.939 3.978 1.692 15.511 7.446 25.653 13.031 19.687 11.17 33.21 15.57 41.363 13.709 4.971-1.185 4.773-1.354-3.58-3.216-4.772-1.184-17.897-7.277-29.43-13.54-21.676-12.184-38.58-20.816-40.37-20.816-.596 0-1.192 1.693-1.192 3.893z" style="fill:#000;stroke:none;stroke-width:.183447"/><path id="path7" d="M89.349 147.662c0 7.954 12.13 18.447 21.477 18.447 2.187 0 7.755 1.523 12.528 3.385 4.772 1.862 10.937 3.385 13.721 3.385 4.176 0 3.182-.846-4.972-4.908-5.369-2.539-17.3-8.632-26.25-13.37-9.147-4.908-16.504-7.955-16.504-6.94z" style="fill:#000;stroke:none;stroke-width:.183447"/></g></g><style>svg{color:#111}path,rect,circle,polygon,ellipse,line,polyline{fill:currentColor !important;stroke:currentColor !important}@media (prefers-color-scheme:dark){svg{color:#fff}}</style></svg>
