<svg xmlns="http://www.w3.org/2000/svg" xml:space="preserve" width="210mm" height="215.433" viewBox="0 0 210 57"><path d="M7.257 26.24v10.88l9.522.464c6.937.232 9.522 0 9.522-1.158 0-.926-2.449-1.389-7.482-1.389h-7.48v-9.84c0-7.987-.409-9.84-2.041-9.84-1.633 0-2.04 1.969-2.04 10.882zM37.59 17.441C25.484 25.43 35.55 41.404 49.97 37.352c14.146-3.935 10.61-21.994-4.217-21.994-2.857 0-6.53.926-8.162 2.083zm12.379 1.505c6.937 2.663 7.48 11.924.952 14.818-10.61 4.862-20.268-6.02-11.698-13.197 3.672-3.241 5.713-3.473 10.746-1.62zM71.052 18.715c-9.521 8.103-.136 21.879 12.922 19.1 4.625-.926 10.338-6.83 10.338-10.418 0-3.82-3.4-9.377-6.665-10.882-5.305-2.315-12.378-1.389-16.595 2.2zm15.779 1.852c6.529 5.44 2.72 14.47-6.121 14.47-9.114 0-13.058-10.187-5.985-14.933 4.76-3.126 8.025-3.01 12.106.463zM103.834 25.776c0 5.673 0 10.766-.136 11.23 0 .462.544 1.041 1.36 1.273.816.231 1.496-3.126 1.768-8.683l.408-9.03 4.081 6.02c2.312 3.358 4.353 6.136 4.76 6.136.409 0 2.585-2.778 5.034-6.135l4.352-6.02.136 9.03c0 6.714.408 9.029 1.769 8.682 1.088-.348 1.768-4.052 2.04-11.692.408-13.429-1.36-14.587-8.025-5.441-2.313 3.125-4.625 5.788-5.17 5.788-.543 0-2.72-2.547-4.896-5.788-5.985-8.567-7.481-7.64-7.481 4.63zM140.56 27.05c0 8.798.408 11.576 1.768 11.229 1.088-.348 1.769-4.052 2.04-11.692.273-9.493 0-11.23-1.768-11.23-1.632 0-2.04 1.969-2.04 11.693zM155.522 27.05c0 8.798.409 11.576 1.769 11.229.816-.348 1.768-2.663 2.04-5.326l.408-4.862h7.481c4.081 0 7.346-.578 7.346-1.157 0-.695-3.4-1.158-7.482-1.158-7.345 0-7.48 0-7.48-3.473s0-3.473 8.16-3.473c6.394 0 8.162-.347 8.162-1.736 0-1.39-2.04-1.736-10.202-1.736h-10.202zM186.808 22.188c4.216 5.325 5.44 7.987 5.44 11.692 0 6.598 3.13 5.556 4.081-1.274.544-3.588 2.449-7.177 5.85-11.229 4.08-4.862 4.624-6.02 2.584-6.02-1.224 0-3.945 2.316-6.121 5.21-2.177 2.894-4.489 4.978-5.033 4.63-.68-.347-2.585-2.662-4.217-5.209-1.904-2.778-4.08-4.63-5.577-4.63-2.176 0-1.632 1.041 2.993 6.83z" style="fill:#000;stroke:none;stroke-width:.125484"/></svg><style>svg{color:#111}path,rect,circle,polygon,ellipse,line,polyline{fill:currentColor !important;stroke:currentColor !important}@media (prefers-color-scheme:dark){svg{color:#fff}}</style></svg>
