<svg xmlns="http://www.w3.org/2000/svg" xml:space="preserve" width="210mm" height="181mm" viewBox="0 0 210 181"><path d="M73.906 7.608c0 .231 1.225 2.2 2.72 4.283 5.442 7.756 2.721 19.448-10.065 43.642-4.08 7.41-8.025 15.397-8.977 17.944-1.905 5.093-1.224 20.953.952 22.805 1.088.926 1.224-.348.816-3.936-.952-6.83 2.176-15.397 11.97-33.687 11.154-20.49 13.874-28.825 13.194-39.128-.408-6.83-1.088-8.45-3.672-10.303-2.857-1.968-6.938-3.01-6.938-1.62z"/><path d="M87.509 12.701c2.312 3.936 2.04 15.05-.68 22.921-1.225 3.589-6.393 14.355-11.562 23.963-10.882 20.606-12.242 24.31-12.242 34.266.136 10.534 5.849 20.374 12.514 21.3 1.088.116 3.672 1.39 5.713 2.778 2.176 1.39 4.216 2.663 4.76 2.663.409.116 2.04.347 3.537.579 1.496.231 5.305 1.042 8.434 1.736 4.216 1.158 6.393 1.158 8.841.232 2.993-1.274 2.993-1.39-1.36-1.39-11.29-.231-17.955-8.334-17.955-21.647 0-7.756 1.088-11.113 10.338-32.182 2.312-5.094 4.216-15.628 2.584-14.355-1.496 1.274-10.066 17.828-14.418 28.13-6.122 14.471-5.17 29.636 2.448 36.697 1.224 1.158 1.632 2.084.816 2.084-1.904 0-6.529-4.63-9.25-9.26-3.128-5.094-3.128-17.134 0-26.047 1.225-3.59 5.713-13.197 10.202-21.3 9.114-16.786 11.562-25.237 9.658-32.414-1.768-6.946-2.857-7.178-2.857-.81 0 6.83-3.4 15.28-13.466 34.034-13.058 24.31-14.554 34.034-7.617 48.157 2.04 4.167-1.904.81-4.897-4.052-3.4-5.788-3.673-16.901-.544-26.162 1.224-3.705 5.849-13.313 10.202-21.3 10.745-19.68 14.146-29.404 13.33-38.202-.544-5.672-1.224-7.525-4.353-10.071-3.808-3.126-3.808-3.126-2.176-.348zm-22.172 4.283c-.408.464 0 2.2 1.088 4.052 1.088 1.737 2.04 6.02 1.905 9.377l-.136 6.135-1.633-5.788c-2.72-9.377-6.257-12.85-9.93-9.724-1.224 1.042-.952 2.084.953 4.4 3.264 3.588 5.849 17.942 4.625 24.772-1.36 7.178.952 4.4 6.937-8.45 2.856-6.02 5.169-12.85 5.169-15.281 0-6.483-5.577-12.387-8.978-9.493z"/><path d="M102.471 88.641c0 .348 2.313 1.505 5.17 2.779 2.72 1.157 11.97 6.135 20.403 10.997 20.675 11.808 33.87 15.05 35.366 8.682.272-1.157-1.497-1.62-6.53-1.736-7.753-.116-13.194-2.778-5.848-2.778 7.073 0 11.29-1.853 11.29-5.094 0-2.662-.137-2.778-3.673-1.273-6.257 2.662-19.724 3.357-22.852 1.273-2.584-1.62-2.312-1.736 4.217-1.852 9.793 0 20.947-3.01 20.947-5.672 0-3.242-1.496-3.705-5.305-1.737-2.04 1.273-8.025 2.315-15.642 2.778-11.698.81-12.786.695-20.54-2.43-7.617-2.895-17.003-5.094-17.003-3.937zm-10.065 2.431c-.408 1.042-.817 1.968-.817 2.2 0 .231 2.857 1.505 6.258 2.778 3.4 1.274 13.466 6.599 22.443 11.692 18.363 10.419 28.293 13.66 34.686 11.46l3.945-1.388-5.441-.927c-8.706-1.389-12.65-3.01-27.069-11.344-24.212-13.892-32.645-17.48-34.005-14.47zm-.816 8.914c0 1.968 1.36 3.241 5.168 4.746 2.72 1.158 10.61 5.094 17.547 8.914 13.467 7.64 22.716 10.65 28.293 9.377 3.4-.81 3.265-.926-2.448-2.2-3.265-.81-12.242-4.977-20.132-9.26-14.826-8.336-26.388-14.24-27.612-14.24-.408 0-.817 1.158-.817 2.663zm0 6.714c0 5.441 8.297 12.618 14.69 12.618 1.496 0 5.305 1.042 8.57 2.316 3.264 1.273 7.48 2.315 9.385 2.315 2.856 0 2.176-.579-3.4-3.357-3.673-1.737-11.835-5.904-17.956-9.145-6.257-3.357-11.29-5.441-11.29-4.747zM5.895 161.456v10.882l9.522.463c6.937.231 9.521 0 9.521-1.158 0-.926-2.448-1.389-7.481-1.389H9.976v-9.84c0-7.987-.408-9.84-2.04-9.84-1.633 0-2.041 1.968-2.041 10.882zm30.333-8.798c-12.106 7.988-2.04 23.963 12.378 19.911 14.147-3.936 10.61-21.995-4.217-21.995-2.856 0-6.529.926-8.16 2.084zm12.378 1.505c6.937 2.663 7.481 11.924.952 14.818-10.61 4.862-20.267-6.02-11.698-13.197 3.673-3.242 5.713-3.473 10.746-1.621zm21.084-.232c-9.522 8.104-.136 21.88 12.922 19.101 4.625-.926 10.338-6.83 10.338-10.418 0-3.82-3.4-9.377-6.665-10.882-5.305-2.315-12.379-1.39-16.595 2.2zm15.778 1.853c6.53 5.44 2.72 14.47-6.12 14.47-9.114 0-13.059-10.187-5.986-14.933 4.761-3.126 8.026-3.01 12.106.463zm17.003 5.209c0 5.672 0 10.766-.136 11.229 0 .463.544 1.042 1.36 1.273.817.232 1.497-3.125 1.769-8.682l.408-9.03 4.08 6.02c2.313 3.357 4.353 6.136 4.761 6.136.408 0 2.585-2.779 5.033-6.136l4.353-6.02.136 9.03c0 6.714.408 9.03 1.768 8.682 1.088-.347 1.769-4.051 2.04-11.692.409-13.428-1.36-14.586-8.025-5.44-2.312 3.125-4.625 5.788-5.169 5.788-.544 0-2.72-2.547-4.896-5.789-5.985-8.566-7.482-7.64-7.482 4.631zm36.727 1.273c0 8.798.408 11.577 1.768 11.23 1.088-.348 1.768-4.052 2.04-11.693.272-9.492 0-11.229-1.768-11.229-1.632 0-2.04 1.968-2.04 11.692zm14.962 0c0 8.798.408 11.577 1.768 11.23.816-.348 1.769-2.663 2.04-5.326l.409-4.862h7.481c4.08 0 7.345-.579 7.345-1.157 0-.695-3.4-1.158-7.481-1.158-7.345 0-7.481 0-7.481-3.473s0-3.473 8.161-3.473c6.393 0 8.162-.347 8.162-1.736 0-1.39-2.04-1.737-10.202-1.737H154.16zm31.285-4.862c4.217 5.325 5.441 7.988 5.441 11.692 0 6.599 3.129 5.557 4.081-1.273.544-3.589 2.448-7.177 5.849-11.229 4.08-4.862 4.625-6.02 2.584-6.02-1.224 0-3.944 2.316-6.12 5.21-2.177 2.894-4.49 4.977-5.034 4.63-.68-.347-2.584-2.662-4.216-5.21-1.905-2.777-4.08-4.63-5.577-4.63-2.177 0-1.632 1.042 2.992 6.83z"/></g><style>svg{color:#111}path,rect,circle,polygon,ellipse,line,polyline{fill:currentColor !important;stroke:currentColor !important}@media (prefers-color-scheme:dark){svg{color:#fff}}</style></svg>
