<?xml version="1.0" standalone="no"?>
<!DOCTYPE svg PUBLIC "-//W3C//DTD SVG 20010904//EN"
 "http://www.w3.org/TR/2001/REC-SVG-20010904/DTD/svg10.dtd">
<svg version="1.0" xmlns="http://www.w3.org/2000/svg"
 width="300.000000pt" height="300.000000pt" viewBox="0 0 300.000000 300.000000"
 preserveAspectRatio="xMidYMid meet">
<metadata>
Created by potrace 1.10, written by Peter Selinger 2001-2011
</metadata>
<g transform="translate(0.000000,300.000000) scale(0.100000,-0.100000)"
fill="#000000" stroke="none">
<path d="M965 2478 c-10 -83 -11 -266 -2 -351 l9 -78 -129 86 c-232 154 -453
295 -463 295 -17 0 -11 -32 34 -193 37 -132 58 -183 133 -329 180 -348 175
-341 362 -506 91 -80 169 -148 174 -152 4 -3 -12 -49 -37 -101 -24 -52 -100
-216 -170 -365 -69 -149 -126 -277 -126 -284 0 -9 11 -10 38 -5 66 12 317 96
324 108 29 51 29 51 98 12 35 -20 68 -34 75 -31 6 2 16 56 24 127 20 206 21
209 42 209 23 0 23 -7 3 -55 -23 -57 -13 -60 43 -14 44 35 51 45 42 61 -12 23
-4 38 21 38 28 0 31 -13 15 -60 -22 -63 -19 -65 35 -19 45 38 50 46 48 78 -3
33 -1 35 44 49 36 12 72 39 158 121 l112 106 42 175 c30 124 60 215 102 315
l60 139 249 83 c138 46 269 89 293 95 23 5 42 14 42 19 0 13 -115 11 -353 -6
l-207 -15 -124 65 -123 65 -115 0 -116 0 -90 -75 c-84 -70 -90 -78 -97 -121
-3 -26 -9 -52 -12 -59 -2 -7 -57 64 -121 159 -64 94 -162 238 -217 319 -55 80
-103 147 -107 147 -4 0 -9 -24 -13 -52z m275 -435 l0 -56 -130 134 -131 134 5
85 c3 47 6 96 6 110 0 18 34 -26 125 -162 123 -185 125 -189 125 -245z m-369
36 l146 -97 11 -54 c6 -29 14 -63 18 -76 6 -21 -10 -15 -152 56 -88 43 -215
105 -284 137 -69 32 -126 59 -128 60 -1 1 -18 58 -37 126 -20 68 -38 132 -41
142 -5 17 128 -67 467 -294z m359 -162 l0 -49 -47 35 c-27 18 -78 55 -114 80
l-66 47 -7 62 c-4 35 -9 79 -12 98 -5 33 1 28 120 -95 125 -130 126 -130 126
-178z m723 157 l107 -55 -42 -36 c-49 -41 -65 -48 -132 -58 -54 -7 -47 -25 11
-25 34 0 143 -38 143 -50 0 -4 -26 -70 -59 -147 -41 -98 -70 -188 -96 -299
-33 -140 -41 -163 -69 -192 l-32 -33 -48 118 c-60 145 -117 260 -145 293 l-21
25 12 -35 c6 -19 28 -62 47 -95 32 -52 72 -138 129 -278 l16 -39 -70 -63 c-65
-60 -76 -65 -208 -110 -141 -47 -172 -53 -216 -41 l-25 7 24 -14 c24 -14 24
-15 -30 -30 -30 -9 -114 -34 -186 -55 -73 -21 -133 -37 -133 -36 0 2 42 95 94
206 l94 203 83 50 c46 28 100 57 119 65 58 22 152 71 148 76 -3 2 -31 -7 -64
-20 -107 -43 -96 -46 -157 46 -89 134 -132 230 -167 371 -17 71 -30 130 -28
132 9 8 324 -224 397 -292 66 -61 80 -71 65 -44 -10 18 -37 53 -58 78 l-39 45
28 128 28 129 81 65 81 66 105 0 105 0 108 -56z m-1037 -202 c139 -66 141 -68
152 -107 6 -22 14 -48 18 -59 6 -16 4 -17 -17 -10 -13 4 -116 31 -229 59
l-205 52 -67 124 c-37 68 -67 127 -68 131 0 4 62 -22 138 -58 75 -36 200 -96
278 -132z m423 87 c68 -101 71 -109 65 -148 -4 -23 -10 -43 -14 -46 -3 -2 -37
17 -74 43 l-67 47 5 50 c3 28 6 77 6 109 0 33 2 57 4 55 2 -2 36 -52 75 -110z
m1179 76 c-3 -3 -81 -21 -174 -40 -209 -43 -367 -82 -336 -84 13 -1 95 15 183
34 88 19 163 35 167 34 4 0 -63 -24 -148 -54 l-155 -53 -43 21 -44 20 53 48
c52 46 56 48 119 50 52 1 335 22 374 28 5 0 7 -1 4 -4z m-1632 -316 l211 -53
21 -47 c12 -26 22 -48 22 -50 0 -2 -57 -1 -127 3 -71 3 -157 7 -193 7 l-65 1
-50 91 c-60 109 -61 113 -44 106 8 -3 109 -29 225 -58z m111 -171 l161 -3 26
-42 25 -43 -27 -6 c-15 -4 -71 -19 -125 -34 l-98 -27 -72 65 c-40 35 -81 73
-92 84 -20 20 -20 20 10 14 17 -3 103 -6 192 -8z m251 -147 l31 -39 -87 -50
-87 -49 -62 56 -62 56 112 31 c61 17 115 32 118 33 3 0 20 -17 37 -38z m282
-440 c0 -5 2 -15 5 -23 3 -7 -3 -18 -13 -24 -16 -10 -18 -8 -18 22 0 21 5 34
13 34 7 0 13 -4 13 -9z m-129 -74 l-20 -21 2 30 c2 35 18 49 30 27 7 -10 3
-22 -12 -36z m-115 -128 c-8 -72 -17 -134 -20 -136 -6 -7 -106 51 -106 62 0 6
9 51 21 101 l21 91 46 15 c26 8 48 11 50 7 2 -5 -4 -67 -12 -140z m-109 98
c-3 -8 -13 -51 -24 -97 -23 -104 -53 -141 -138 -169 -33 -11 -61 -18 -62 -17
-2 2 14 41 35 87 22 46 47 105 56 130 17 43 22 48 69 62 66 20 70 20 64 4z
m-188 -139 c-27 -61 -55 -122 -62 -136 -9 -19 -27 -29 -74 -42 -35 -10 -63
-15 -63 -12 0 2 29 64 64 137 l64 133 48 15 c27 8 54 15 61 16 7 1 -10 -47
-38 -111z"/>
<path d="M1016 2311 c10 -18 36 -51 57 -74 20 -23 54 -63 74 -89 20 -26 39
-46 41 -43 5 5 -163 221 -180 231 -6 4 -2 -8 8 -25z"/>
<path d="M490 2205 c0 -8 66 -47 185 -110 135 -71 178 -95 230 -124 49 -28 94
-47 80 -32 -18 18 -475 271 -489 271 -3 0 -6 -2 -6 -5z"/>
<path d="M1040 2086 c14 -15 38 -35 54 -43 41 -21 26 -3 -31 36 -45 32 -46 32
-23 7z"/>
<path d="M1654 2082 c-37 -12 -142 -103 -149 -129 -3 -14 -4 -28 0 -31 3 -3 5
1 5 10 0 19 85 100 130 123 19 10 55 20 80 22 24 2 46 6 49 8 7 7 -91 4 -115
-3z"/>
<path d="M1692 1977 c-50 -53 -13 -137 60 -137 69 0 105 91 55 138 -32 30 -87
29 -115 -1z m58 -13 c11 -12 10 -18 -3 -31 -8 -9 -23 -13 -31 -10 -19 8 -21
43 -3 50 20 9 24 8 37 -9z m50 -42 c0 -18 -33 -52 -51 -52 -26 0 -24 10 9 37
28 23 42 28 42 15z"/>
<path d="M1598 1843 c-15 -10 -30 -24 -34 -33 -11 -26 -14 -71 -5 -66 5 3 14
-1 21 -8 32 -40 119 -21 142 29 13 29 -5 55 -55 80 -37 18 -36 18 -69 -2z
m100 -25 c33 -27 -14 -88 -67 -88 -67 0 -68 79 -1 103 17 6 50 -1 68 -15z"/>
<path d="M1585 1630 c-16 -7 -12 -9 18 -9 26 -1 52 -11 81 -32 36 -25 49 -29
78 -24 24 5 45 2 65 -9 35 -17 77 -11 69 11 -3 8 -6 17 -6 21 0 3 -6 -2 -13
-12 -13 -17 -15 -17 -45 -2 -17 9 -48 16 -69 16 -22 0 -54 11 -78 25 -42 26
-66 30 -100 15z"/>
<path d="M1837 1478 c-8 -24 -27 -73 -41 -110 -14 -38 -23 -68 -21 -68 13 0
90 208 81 217 -2 2 -11 -15 -19 -39z"/>
<path d="M620 1926 c42 -23 240 -88 256 -84 9 2 -47 24 -124 51 -143 48 -176
56 -132 33z"/>
<path d="M756 1680 c12 -4 68 -11 125 -13 l104 -5 -95 13 c-52 7 -108 13 -125
14 -26 0 -27 -1 -9 -9z"/>
<path d="M935 1500 l-30 -8 30 0 c17 0 41 4 55 8 l25 8 -25 0 c-14 0 -38 -4
-55 -8z"/>
</g>
<style>svg{color:#111}path,rect,circle,polygon,ellipse,line,polyline{fill:currentColor !important;stroke:currentColor !important}@media (prefers-color-scheme:dark){svg{color:#fff}}</style>
</svg>
